<svg width="33" height="37" viewBox="0 0 33 37" fill="none" xmlns="http://www.w3.org/2000/svg">
<path d="M17.0636 5.90821C16.8735 5.79568 16.6576 5.7364 16.4377 5.7364C16.2178 5.7364 16.0019 5.79568 15.8119 5.90821L7.18001 11.013C6.71077 11.2916 6.3188 11.6869 6.04087 12.1618L5.95354 12.3099L0.71582 9.31731L0.853604 9.08043C0.869129 9.05279 0.886594 9.02713 0.90406 8.99949C1.31354 8.31459 1.85005 7.71722 2.48372 7.24066C2.6669 7.10253 2.85737 6.97469 3.05426 6.8577L13.1804 0.846875C14.1116 0.297223 15.168 0.00526557 16.2446 7.05612e-05C17.3212 -0.00512445 18.3804 0.276624 19.3166 0.817265L32.1053 8.21779C32.1885 8.26313 32.2581 8.33059 32.3066 8.41297C32.3551 8.49536 32.3808 8.58959 32.3808 8.68563C32.3834 8.7846 32.3594 8.88242 32.3116 8.96864C32.2637 9.05486 32.1938 9.12624 32.1092 9.17518L17.5545 17.766C17.2994 17.9156 17.0774 18.1172 16.9025 18.3582L16.8113 18.4846L11.2048 15.2966L11.3116 15.1386C11.3407 15.0932 11.3737 15.0498 11.4067 15.0064C11.579 14.7817 11.7909 14.5916 12.0316 14.4458L21.0205 9.1278C21.0974 9.08214 21.1613 9.01671 21.2055 8.93807C21.2498 8.85943 21.273 8.77033 21.2728 8.6797V8.66194C21.2694 8.57375 21.2441 8.48787 21.1993 8.41228C21.1545 8.33669 21.0917 8.27386 21.0166 8.22963L17.5759 6.21418L17.0636 5.90821Z" fill="#BA383F"/>
<path d="M15.8568 24.4244C15.7444 24.4229 15.6342 24.3923 15.5366 24.3355L11.2265 21.795C11.1299 21.7365 11.0499 21.6535 10.9941 21.5543C10.9383 21.455 10.9088 21.3428 10.9082 21.2284L10.9257 16.4139C10.9288 16.1041 10.9948 15.7983 11.1197 15.5157C11.145 15.4545 11.1721 15.3973 11.1993 15.344L11.2827 15.186L16.8834 18.3819L16.7941 18.5359C16.6013 18.8679 16.4982 19.2459 16.4952 19.6315V23.7769C16.4961 23.8917 16.4667 24.0046 16.41 24.104C16.3534 24.2033 16.2715 24.2853 16.1731 24.3414C16.0765 24.3965 15.9675 24.4251 15.8568 24.4244V24.4244Z" fill="#BA383F"/>
<path d="M16.3245 36.7661C16.2585 36.7661 16.1944 36.7661 16.1304 36.7661C15.1504 36.7156 14.1963 36.428 13.3476 35.9271L3.06229 29.861C2.13119 29.3089 1.35853 28.5183 0.821251 27.568C0.283971 26.6176 0.000821678 25.5407 0 24.4444L0 12.2549C0.00182102 11.3162 0.209323 10.3896 0.607413 9.54267L0.675334 9.39857L0.778187 9.20117L6.01591 12.1938L5.94022 12.3438C5.70799 12.8044 5.58629 13.3145 5.58509 13.8322V22.8987C5.58629 23.4703 5.73453 24.0316 6.01505 24.5268C6.29558 25.022 6.69864 25.4339 7.18416 25.7216L14.8302 30.2025C15.2881 30.4714 15.8038 30.6219 16.3322 30.6408H16.5011V36.7602L16.3245 36.7661Z" fill="#BA383F"/>
<path d="M16.3691 30.6465H16.538C17.0695 30.6271 17.5881 30.4746 18.0478 30.2024L26.2391 25.3839C26.5616 25.1921 26.8291 24.9177 27.0147 24.5879C27.2003 24.2581 27.2975 23.8846 27.2968 23.5046L27.2676 18.692C27.2664 18.5771 27.2955 18.4639 27.3518 18.3643C27.4081 18.2647 27.4896 18.1822 27.5878 18.1255L31.9154 15.5751C32.0132 15.517 32.1243 15.4863 32.2376 15.4863C32.3508 15.4863 32.462 15.517 32.5597 15.5751C32.6566 15.6322 32.737 15.7143 32.7929 15.813C32.8487 15.9118 32.8781 16.0237 32.878 16.1376V24.4423C32.8753 25.5381 32.5909 26.6142 32.053 27.5637C31.5152 28.5132 30.7425 29.3031 29.8118 29.855L19.5265 35.923C19.0246 36.2177 18.4843 36.439 17.9216 36.5804C17.5401 36.6771 17.1501 36.7353 16.7573 36.7541C16.6893 36.7541 16.6234 36.7541 16.5632 36.764H16.3847L16.3691 30.6465Z" fill="#BA383F"/>
<path d="M0.214844 10.6083L0.253656 10.4741C0.346294 10.1543 0.464416 9.84265 0.606848 9.54236L0.682532 9.38641L0.748513 9.26008L0.847484 9.08044L0.907643 8.98372C1.26445 8.38683 1.71933 7.85668 2.25249 7.41636L2.34564 7.3374L7.82594 10.634L7.17971 11.013C6.69473 11.303 6.29319 11.7176 6.01534 12.2152L5.994 12.2527C5.79494 12.6194 5.6665 13.0214 5.61558 13.4371L5.58453 13.6976L0.214844 10.6083Z" fill="url(#paint0_linear_0_25)"/>
<path d="M10.9238 16.7631V16.4137C10.9269 16.1039 10.993 15.7981 11.1179 15.5156L11.18 15.3695L11.3488 15.0832L11.4206 14.9984C11.5895 14.7777 11.7967 14.5904 12.0319 14.4456L13.0993 13.814L18.63 17.1362L17.5549 17.7659C17.2726 17.9326 17.0316 18.1628 16.8505 18.439L16.833 18.4687C16.6142 18.8157 16.4971 19.219 16.4953 19.6313V19.9689L10.9238 16.7631Z" fill="url(#paint1_linear_0_25)"/>
<path d="M16.2785 36.7677L16.1175 36.7558C15.716 36.7367 15.3175 36.6765 14.9279 36.5762L14.7959 36.5406V30.2021L15.0462 30.3245C15.8086 30.6989 16.6857 30.7507 17.4856 30.4686L17.7165 30.3857V36.6374L17.5749 36.663C17.302 36.7162 17.0257 36.7492 16.7482 36.7617L16.523 36.7736L16.2785 36.7677Z" fill="#BA383F"/>
<defs>
<linearGradient id="paint0_linear_0_25" x1="3.10248" y1="12.1105" x2="5.92655" y2="7.12767" gradientUnits="userSpaceOnUse">
<stop offset="0.2" stop-color="#BA383F"/>
<stop offset="0.56" stop-color="#BA3135"/>
<stop offset="1" stop-color="#BC3135"/>
</linearGradient>
<linearGradient id="paint1_linear_0_25" x1="529.011" y1="627.152" x2="624.103" y2="411.287" gradientUnits="userSpaceOnUse">
<stop offset="0.2" stop-color="#BA383F"/>
<stop offset="0.56" stop-color="#BA383F"/>
<stop offset="1" stop-color="#BA383F"/>
</linearGradient>
</defs>
</svg>
